<mxfile host="app.diagrams.net" modified="2024-05-28T17:57:23.400Z" agent="Mozilla/5.0 (Windows NT 10.0; Win64; x64) AppleWebKit/537.36 (KHTML, like Gecko) Chrome/125.0.0.0 Safari/537.36" etag="WU4icV4W8joK5tIDNpWT" version="24.3.1" type="github">
  <diagram name="Page-1" id="TQ4eBMd5YeBiTXItU8jS">
    <mxGraphModel dx="1912" dy="1029" grid="1" gridSize="10" guides="1" tooltips="1" connect="1" arrows="1" fold="1" page="1" pageScale="1" pageWidth="850" pageHeight="1100" math="0" shadow="0">
      <root>
        <mxCell id="0" />
        <mxCell id="1" parent="0" />
        <mxCell id="Oc1wq3lQpYeWBhhOjSAj-2" value="/simulate" style="rounded=1;whiteSpace=wrap;html=1;fillColor=#d5e8d4;strokeColor=#82b366;" parent="1" vertex="1">
          <mxGeometry x="370" y="40" width="120" height="60" as="geometry" />
        </mxCell>
        <mxCell id="xN9SMs_Lk29yB2TB7Gc1-17" value="" style="edgeStyle=orthogonalEdgeStyle;rounded=0;orthogonalLoop=1;jettySize=auto;html=1;" edge="1" parent="1" source="xN9SMs_Lk29yB2TB7Gc1-1" target="xN9SMs_Lk29yB2TB7Gc1-16">
          <mxGeometry relative="1" as="geometry" />
        </mxCell>
        <mxCell id="xN9SMs_Lk29yB2TB7Gc1-1" value="&lt;div&gt;Authenticated&lt;/div&gt;check that id does not exist&lt;div&gt;check it has the correect shape&lt;/div&gt;" style="rounded=1;whiteSpace=wrap;html=1;" vertex="1" parent="1">
          <mxGeometry x="287.5" y="200" width="285" height="80" as="geometry" />
        </mxCell>
        <mxCell id="xN9SMs_Lk29yB2TB7Gc1-4" value="simulations" style="swimlane;fontStyle=0;childLayout=stackLayout;horizontal=1;startSize=30;horizontalStack=0;resizeParent=1;resizeParentMax=0;resizeLast=0;collapsible=1;marginBottom=0;whiteSpace=wrap;html=1;" vertex="1" parent="1">
          <mxGeometry x="780" y="270" width="140" height="120" as="geometry" />
        </mxCell>
        <mxCell id="xN9SMs_Lk29yB2TB7Gc1-5" value="id: PRIMARY_KEY" style="text;strokeColor=none;fillColor=none;align=left;verticalAlign=middle;spacingLeft=4;spacingRight=4;overflow=hidden;points=[[0,0.5],[1,0.5]];portConstraint=eastwest;rotatable=0;whiteSpace=wrap;html=1;" vertex="1" parent="xN9SMs_Lk29yB2TB7Gc1-4">
          <mxGeometry y="30" width="140" height="30" as="geometry" />
        </mxCell>
        <mxCell id="xN9SMs_Lk29yB2TB7Gc1-6" value="scenario_properties" style="text;strokeColor=none;fillColor=none;align=left;verticalAlign=middle;spacingLeft=4;spacingRight=4;overflow=hidden;points=[[0,0.5],[1,0.5]];portConstraint=eastwest;rotatable=0;whiteSpace=wrap;html=1;" vertex="1" parent="xN9SMs_Lk29yB2TB7Gc1-4">
          <mxGeometry y="60" width="140" height="30" as="geometry" />
        </mxCell>
        <mxCell id="xN9SMs_Lk29yB2TB7Gc1-7" value="species" style="text;strokeColor=none;fillColor=none;align=left;verticalAlign=middle;spacingLeft=4;spacingRight=4;overflow=hidden;points=[[0,0.5],[1,0.5]];portConstraint=eastwest;rotatable=0;whiteSpace=wrap;html=1;" vertex="1" parent="xN9SMs_Lk29yB2TB7Gc1-4">
          <mxGeometry y="90" width="140" height="30" as="geometry" />
        </mxCell>
        <mxCell id="xN9SMs_Lk29yB2TB7Gc1-8" value="results" style="swimlane;fontStyle=0;childLayout=stackLayout;horizontal=1;startSize=30;horizontalStack=0;resizeParent=1;resizeParentMax=0;resizeLast=0;collapsible=1;marginBottom=0;whiteSpace=wrap;html=1;" vertex="1" parent="1">
          <mxGeometry x="780" y="410" width="140" height="90" as="geometry" />
        </mxCell>
        <mxCell id="xN9SMs_Lk29yB2TB7Gc1-9" value="id: PRIMARY_KEY" style="text;strokeColor=none;fillColor=none;align=left;verticalAlign=middle;spacingLeft=4;spacingRight=4;overflow=hidden;points=[[0,0.5],[1,0.5]];portConstraint=eastwest;rotatable=0;whiteSpace=wrap;html=1;" vertex="1" parent="xN9SMs_Lk29yB2TB7Gc1-8">
          <mxGeometry y="30" width="140" height="30" as="geometry" />
        </mxCell>
        <mxCell id="xN9SMs_Lk29yB2TB7Gc1-10" value="model_result" style="text;strokeColor=none;fillColor=none;align=left;verticalAlign=middle;spacingLeft=4;spacingRight=4;overflow=hidden;points=[[0,0.5],[1,0.5]];portConstraint=eastwest;rotatable=0;whiteSpace=wrap;html=1;" vertex="1" parent="xN9SMs_Lk29yB2TB7Gc1-8">
          <mxGeometry y="60" width="140" height="30" as="geometry" />
        </mxCell>
        <mxCell id="xN9SMs_Lk29yB2TB7Gc1-13" value="" style="endArrow=classic;html=1;rounded=0;entryX=0;entryY=0.5;entryDx=0;entryDy=0;" edge="1" parent="1" target="xN9SMs_Lk29yB2TB7Gc1-5">
          <mxGeometry relative="1" as="geometry">
            <mxPoint x="572.5" y="239.5" as="sourcePoint" />
            <mxPoint x="672.5" y="239.5" as="targetPoint" />
          </mxGeometry>
        </mxCell>
        <mxCell id="xN9SMs_Lk29yB2TB7Gc1-14" value="POST" style="edgeLabel;resizable=0;html=1;;align=center;verticalAlign=middle;" connectable="0" vertex="1" parent="xN9SMs_Lk29yB2TB7Gc1-13">
          <mxGeometry relative="1" as="geometry" />
        </mxCell>
        <mxCell id="xN9SMs_Lk29yB2TB7Gc1-21" value="" style="edgeStyle=orthogonalEdgeStyle;rounded=0;orthogonalLoop=1;jettySize=auto;html=1;" edge="1" parent="1" source="xN9SMs_Lk29yB2TB7Gc1-16" target="xN9SMs_Lk29yB2TB7Gc1-20">
          <mxGeometry relative="1" as="geometry" />
        </mxCell>
        <mxCell id="xN9SMs_Lk29yB2TB7Gc1-16" value="Update status to running" style="rounded=1;whiteSpace=wrap;html=1;" vertex="1" parent="1">
          <mxGeometry x="287.5" y="360" width="285" height="80" as="geometry" />
        </mxCell>
        <mxCell id="xN9SMs_Lk29yB2TB7Gc1-18" value="" style="endArrow=classic;html=1;rounded=0;entryX=0;entryY=0.5;entryDx=0;entryDy=0;" edge="1" parent="1" target="xN9SMs_Lk29yB2TB7Gc1-5">
          <mxGeometry relative="1" as="geometry">
            <mxPoint x="572.5" y="400" as="sourcePoint" />
            <mxPoint x="780" y="475.5" as="targetPoint" />
          </mxGeometry>
        </mxCell>
        <mxCell id="xN9SMs_Lk29yB2TB7Gc1-19" value="UPDATE" style="edgeLabel;resizable=0;html=1;;align=center;verticalAlign=middle;" connectable="0" vertex="1" parent="xN9SMs_Lk29yB2TB7Gc1-18">
          <mxGeometry relative="1" as="geometry" />
        </mxCell>
        <mxCell id="xN9SMs_Lk29yB2TB7Gc1-23" value="" style="edgeStyle=orthogonalEdgeStyle;rounded=0;orthogonalLoop=1;jettySize=auto;html=1;" edge="1" parent="1" source="xN9SMs_Lk29yB2TB7Gc1-20" target="xN9SMs_Lk29yB2TB7Gc1-22">
          <mxGeometry relative="1" as="geometry" />
        </mxCell>
        <mxCell id="xN9SMs_Lk29yB2TB7Gc1-20" value="Add simulation to queue" style="rounded=1;whiteSpace=wrap;html=1;" vertex="1" parent="1">
          <mxGeometry x="287.5" y="520" width="285" height="80" as="geometry" />
        </mxCell>
        <mxCell id="xN9SMs_Lk29yB2TB7Gc1-26" value="" style="edgeStyle=orthogonalEdgeStyle;rounded=0;orthogonalLoop=1;jettySize=auto;html=1;" edge="1" parent="1" source="xN9SMs_Lk29yB2TB7Gc1-22" target="xN9SMs_Lk29yB2TB7Gc1-25">
          <mxGeometry relative="1" as="geometry" />
        </mxCell>
        <mxCell id="xN9SMs_Lk29yB2TB7Gc1-29" value="" style="edgeStyle=orthogonalEdgeStyle;rounded=0;orthogonalLoop=1;jettySize=auto;html=1;" edge="1" parent="1" source="xN9SMs_Lk29yB2TB7Gc1-22" target="xN9SMs_Lk29yB2TB7Gc1-28">
          <mxGeometry relative="1" as="geometry" />
        </mxCell>
        <mxCell id="xN9SMs_Lk29yB2TB7Gc1-22" value="Run SImulation" style="rounded=1;whiteSpace=wrap;html=1;" vertex="1" parent="1">
          <mxGeometry x="287.5" y="680" width="285" height="80" as="geometry" />
        </mxCell>
        <mxCell id="xN9SMs_Lk29yB2TB7Gc1-25" value="Simulation Failed&amp;nbsp;&lt;div&gt;Update status with &#39;failed&#39;&lt;/div&gt;" style="rounded=1;whiteSpace=wrap;html=1;" vertex="1" parent="1">
          <mxGeometry x="690" y="820" width="285" height="80" as="geometry" />
        </mxCell>
        <mxCell id="xN9SMs_Lk29yB2TB7Gc1-28" value="Simulation Correctly runs&amp;nbsp;&lt;div&gt;Update status to &#39;complete&#39;&lt;/div&gt;&lt;div&gt;Add result (json) to results schema&amp;nbsp;&lt;/div&gt;" style="rounded=1;whiteSpace=wrap;html=1;" vertex="1" parent="1">
          <mxGeometry x="970" y="680" width="285" height="80" as="geometry" />
        </mxCell>
        <mxCell id="xN9SMs_Lk29yB2TB7Gc1-31" value="" style="endArrow=classic;html=1;rounded=0;entryX=1;entryY=0.5;entryDx=0;entryDy=0;" edge="1" parent="1" target="xN9SMs_Lk29yB2TB7Gc1-9">
          <mxGeometry relative="1" as="geometry">
            <mxPoint x="1110" y="680" as="sourcePoint" />
            <mxPoint x="1317.5" y="755.5" as="targetPoint" />
          </mxGeometry>
        </mxCell>
        <mxCell id="xN9SMs_Lk29yB2TB7Gc1-32" value="POST" style="edgeLabel;resizable=0;html=1;;align=center;verticalAlign=middle;" connectable="0" vertex="1" parent="xN9SMs_Lk29yB2TB7Gc1-31">
          <mxGeometry relative="1" as="geometry" />
        </mxCell>
        <mxCell id="xN9SMs_Lk29yB2TB7Gc1-33" value="" style="endArrow=classic;html=1;rounded=0;entryX=1;entryY=0.5;entryDx=0;entryDy=0;exitX=0.5;exitY=0;exitDx=0;exitDy=0;" edge="1" parent="1" source="xN9SMs_Lk29yB2TB7Gc1-28" target="xN9SMs_Lk29yB2TB7Gc1-5">
          <mxGeometry relative="1" as="geometry">
            <mxPoint x="1110" y="680" as="sourcePoint" />
            <mxPoint x="920" y="455" as="targetPoint" />
          </mxGeometry>
        </mxCell>
        <mxCell id="xN9SMs_Lk29yB2TB7Gc1-34" value="UPDATE" style="edgeLabel;resizable=0;html=1;;align=center;verticalAlign=middle;" connectable="0" vertex="1" parent="xN9SMs_Lk29yB2TB7Gc1-33">
          <mxGeometry relative="1" as="geometry" />
        </mxCell>
        <mxCell id="xN9SMs_Lk29yB2TB7Gc1-35" value="/simulate//&amp;lt;id&amp;gt;" style="rounded=1;whiteSpace=wrap;html=1;fillColor=#d5e8d4;strokeColor=#82b366;" vertex="1" parent="1">
          <mxGeometry x="1052.5" y="40" width="120" height="60" as="geometry" />
        </mxCell>
        <mxCell id="xN9SMs_Lk29yB2TB7Gc1-36" value="" style="endArrow=classic;html=1;rounded=0;entryX=0.5;entryY=0;entryDx=0;entryDy=0;" edge="1" parent="1" target="xN9SMs_Lk29yB2TB7Gc1-1">
          <mxGeometry relative="1" as="geometry">
            <mxPoint x="430" y="100" as="sourcePoint" />
            <mxPoint x="637.5" y="175.5" as="targetPoint" />
          </mxGeometry>
        </mxCell>
        <mxCell id="xN9SMs_Lk29yB2TB7Gc1-37" value="POST" style="edgeLabel;resizable=0;html=1;;align=center;verticalAlign=middle;" connectable="0" vertex="1" parent="xN9SMs_Lk29yB2TB7Gc1-36">
          <mxGeometry relative="1" as="geometry" />
        </mxCell>
        <mxCell id="xN9SMs_Lk29yB2TB7Gc1-38" value="" style="endArrow=classic;html=1;rounded=0;entryX=1;entryY=0.5;entryDx=0;entryDy=0;" edge="1" parent="1" target="xN9SMs_Lk29yB2TB7Gc1-5">
          <mxGeometry relative="1" as="geometry">
            <mxPoint x="1112" y="100" as="sourcePoint" />
            <mxPoint x="1112" y="200" as="targetPoint" />
          </mxGeometry>
        </mxCell>
        <mxCell id="xN9SMs_Lk29yB2TB7Gc1-39" value="GET" style="edgeLabel;resizable=0;html=1;;align=center;verticalAlign=middle;" connectable="0" vertex="1" parent="xN9SMs_Lk29yB2TB7Gc1-38">
          <mxGeometry relative="1" as="geometry" />
        </mxCell>
        <mxCell id="xN9SMs_Lk29yB2TB7Gc1-40" value="/results/&amp;lt;id&amp;gt;" style="rounded=1;whiteSpace=wrap;html=1;fillColor=#d5e8d4;strokeColor=#82b366;" vertex="1" parent="1">
          <mxGeometry x="1240" y="180" width="120" height="60" as="geometry" />
        </mxCell>
        <mxCell id="xN9SMs_Lk29yB2TB7Gc1-41" value="" style="endArrow=classic;html=1;rounded=0;entryX=1;entryY=0.5;entryDx=0;entryDy=0;exitX=0;exitY=0.5;exitDx=0;exitDy=0;" edge="1" parent="1" source="xN9SMs_Lk29yB2TB7Gc1-40" target="xN9SMs_Lk29yB2TB7Gc1-9">
          <mxGeometry relative="1" as="geometry">
            <mxPoint x="1102" y="300" as="sourcePoint" />
            <mxPoint x="910" y="515" as="targetPoint" />
          </mxGeometry>
        </mxCell>
        <mxCell id="xN9SMs_Lk29yB2TB7Gc1-42" value="GET" style="edgeLabel;resizable=0;html=1;;align=center;verticalAlign=middle;" connectable="0" vertex="1" parent="xN9SMs_Lk29yB2TB7Gc1-41">
          <mxGeometry relative="1" as="geometry" />
        </mxCell>
        <mxCell id="xN9SMs_Lk29yB2TB7Gc1-43" value="/delete/&amp;lt;id&amp;gt;" style="rounded=1;whiteSpace=wrap;html=1;fillColor=#d5e8d4;strokeColor=#82b366;" vertex="1" parent="1">
          <mxGeometry x="1240" y="370" width="120" height="60" as="geometry" />
        </mxCell>
        <mxCell id="xN9SMs_Lk29yB2TB7Gc1-44" value="" style="endArrow=classic;html=1;rounded=0;entryX=1;entryY=0.5;entryDx=0;entryDy=0;exitX=0;exitY=0.5;exitDx=0;exitDy=0;" edge="1" parent="1" source="xN9SMs_Lk29yB2TB7Gc1-43" target="xN9SMs_Lk29yB2TB7Gc1-5">
          <mxGeometry relative="1" as="geometry">
            <mxPoint x="1255" y="210" as="sourcePoint" />
            <mxPoint x="860" y="565" as="targetPoint" />
          </mxGeometry>
        </mxCell>
        <mxCell id="xN9SMs_Lk29yB2TB7Gc1-45" value="DELETE" style="edgeLabel;resizable=0;html=1;;align=center;verticalAlign=middle;" connectable="0" vertex="1" parent="xN9SMs_Lk29yB2TB7Gc1-44">
          <mxGeometry relative="1" as="geometry" />
        </mxCell>
        <mxCell id="xN9SMs_Lk29yB2TB7Gc1-47" value="" style="endArrow=classic;html=1;rounded=0;entryX=1;entryY=0.5;entryDx=0;entryDy=0;exitX=0;exitY=0.5;exitDx=0;exitDy=0;" edge="1" parent="1" source="xN9SMs_Lk29yB2TB7Gc1-43" target="xN9SMs_Lk29yB2TB7Gc1-9">
          <mxGeometry relative="1" as="geometry">
            <mxPoint x="1255" y="210" as="sourcePoint" />
            <mxPoint x="920" y="315" as="targetPoint" />
          </mxGeometry>
        </mxCell>
        <mxCell id="xN9SMs_Lk29yB2TB7Gc1-48" value="DELETE" style="edgeLabel;resizable=0;html=1;;align=center;verticalAlign=middle;" connectable="0" vertex="1" parent="xN9SMs_Lk29yB2TB7Gc1-47">
          <mxGeometry relative="1" as="geometry" />
        </mxCell>
      </root>
    </mxGraphModel>
  </diagram>
</mxfile>
